<svg version="1.1" id="Calque_1" xmlns="http://www.w3.org/2000/svg" xmlns:xlink="http://www.w3.org/1999/xlink" x="0px" y="0px" fill="white" width="20px" viewBox="0 0 25 24.99" enable-background="new 0 0 25 24.99" xml:space="preserve">
   <path fill-rule="evenodd" clip-rule="evenodd" d="M17.136,11.078c2.652,0,5.251,0,7.864,0c0,4.639,0,9.264,0,13.912
      c-8.323,0-16.65,0-25,0c0-4.622,0-9.254,0-13.906c2.602,0,5.208,0,7.835,0c0,2.305,0,4.606,0,6.931c3.104,0,6.187,0,9.301,0
      C17.136,15.716,17.136,13.408,17.136,11.078z" />
   <path fill-rule="evenodd" clip-rule="evenodd" d="M17.125,6.938c-3.096,0-6.171,0-9.262,0c0-2.313,0-4.614,0-6.938
      c3.077,0,6.159,0,9.262,0C17.125,2.299,17.125,4.606,17.125,6.938z" />
</svg>